<svg height="511pt" viewBox="-21 1 511 511.99899" width="511pt" xmlns="http://www.w3.org/2000/svg"><path d="m306.347656 386.28125c88.941406 7.886719 153.023438 30.109375 153.023438 56.289062 0 32.777344-100.464844 59.347657-224.394532 59.347657-123.929687 0-224.394531-26.570313-224.394531-59.347657 0-26.207031 64.222657-48.449218 153.3125-56.3125" fill="#cbe558"/><path d="m337.945312 46.867188c-59.789062-49.046876-147.601562-49.046876-207.390624-.003907-56.285157 46.171875-80.457032 132.25-59.476563 201.492188 25.316406 83.527343 98.019531 144.585937 163.171875 197.792969 63.265625-51.535157 133.257812-108.253907 160.464844-188.226563 24.148437-70.996094 1.847656-162.976563-56.769532-211.054687zm0 0" fill="#f5737f"/><path d="m348.484375 179.277344c0 62.695312-50.824219 113.519531-113.519531 113.519531-62.695313 0-113.523438-50.824219-113.523438-113.519531 0-62.695313 50.828125-113.519532 113.523438-113.519532 62.695312 0 113.519531 50.824219 113.519531 113.519532zm0 0" fill="#fafafa"/><path d="m222.414062 244.371094c-3.816406 0-7.660156-1.210938-10.925781-3.714844l-33.511719-25.695312c-7.878906-6.039063-9.371093-17.324219-3.328124-25.203126 6.039062-7.878906 17.324218-9.371093 25.207031-3.328124l19.277343 14.78125 49.007813-63.613282c6.058594-7.863281 17.347656-9.328125 25.214844-3.269531 7.863281 6.058594 9.328125 17.347656 3.269531 25.214844l-59.953125 77.820312c-3.542969 4.59375-8.871094 7.007813-14.257813 7.007813zm0 0" fill="#cbe558"/><path d="m419.640625 398.085938c-24.324219-8.792969-56.242187-15.589844-93.125-19.871094 3.566406-3.609375 7.082031-7.265625 10.535156-10.976563 33.015625-35.488281 55-70.1875 67.207031-106.074219 26.222657-77.082031.460938-172.5625-59.917968-222.09375-30.714844-25.195312-69.8125-39.070312-110.089844-39.070312-.003906 0 0 0 0 0-40.277344 0-79.378906 13.875-110.089844 39.070312-28.59375 23.457032-50.613281 57.929688-62 97.070313-11.25 38.679687-11.507812 79.566406-.730468 115.136719 14.421874 47.585937 45.390624 89.496094 81.820312 126.957031-36.753906 4.277344-68.570312 11.050781-92.84375 19.816406-33.117188 11.957031-49.90625 26.9375-49.90625 44.515625 0 21.464844 24.636719 38.863282 73.226562 51.714844 43.199219 11.425781 100.464844 17.71875 161.25 17.71875 60.785157 0 118.050782-6.292969 161.25-17.71875 48.589844-12.851562 73.226563-30.25 73.226563-51.714844 0-17.5625-16.757813-32.527344-49.8125-44.480468zm-338.121094-256.3125c10.261719-35.273438 29.945313-66.210938 55.429688-87.113282 27.117187-22.25 61.671875-34.5 97.300781-34.5s70.183594 12.253906 97.300781 34.5c26.367188 21.628906 46.277344 54.1875 56.058594 91.6875 9.632813 36.910156 8.765625 75.382813-2.441406 108.324219-25.257813 74.257813-91.710938 129.628906-150.917969 178.429687-62.742188-51.78125-130.949219-113.179687-153.523438-187.667968-9.660156-31.878906-9.378906-68.691406.792969-103.660156zm309.550781 333.015624c-41.566406 10.996094-97 17.050782-156.09375 17.050782s-114.527343-6.054688-156.09375-17.050782c-45.960937-12.15625-58.222656-25.972656-58.222656-32.21875 0-13.394531 44.894532-37.109374 141.175782-46.003906 20.066406 19.046875 41.140624 36.898438 61.59375 53.746094 8.304687 6.839844 13.195312 6.949219 21.640624-.003906 19.921876-16.417969 41.628907-34.320313 62.542969-53.785156 96.628907 8.859374 141.679688 32.640624 141.679688 46.046874 0 6.246094-12.261719 20.066407-58.222657 32.21875zm0 0"/><path d="m288.941406 290.496094c11.710938-5.515625 3.140625-23.765625-8.585937-18.242188-14.328125 6.746094-30.449219 10.464844-45.394531 10.464844-57.035157 0-103.4375-46.40625-103.4375-103.441406 0-57.039063 46.402343-103.4375 103.4375-103.4375 57.039062 0 103.441406 46.402344 103.441406 103.4375 0 14.0625-2.769532 27.6875-8.226563 40.503906-5.074219 11.90625 13.46875 19.828125 18.546875 7.902344 6.53125-15.328125 9.839844-31.613282 9.839844-48.40625 0-68.152344-55.445312-123.601563-123.601562-123.601563-68.152344 0-123.597657 55.449219-123.597657 123.601563 0 68.15625 55.445313 123.601562 123.597657 123.601562 17.855468 0 37.023437-4.398437 53.980468-12.382812zm0 0"/><path d="m317.722656 246.761719c-5.480468 0-10.078125 4.601562-10.078125 10.082031 0 5.476562 4.601563 10.078125 10.078125 10.078125 5.324219 0 9.828125-4.335937 10.0625-9.636719.25-5.644531-4.40625-10.523437-10.0625-10.523437zm0 0"/><path d="m299.503906 126.34375c-12.253906-9.441406-29.90625-7.152344-39.351562 5.101562l-42.867188 55.644532-11.296875-8.660156c-5.949219-4.5625-13.316406-6.53125-20.746093-5.550782-7.429688.980469-14.035157 4.796875-18.59375 10.746094-9.414063 12.277344-7.082032 29.925781 5.195312 39.335938l33.511719 25.695312c12.132812 9.304688 29.980469 6.953125 39.300781-5.140625l59.953125-77.820313c9.441406-12.257812 7.152344-29.910156-5.105469-39.351562-12.253906-9.441406 12.257813 9.441406 0 0zm-10.863281 27.046875-59.953125 77.820313c-2.644531 3.433593-7.671875 4.050781-11.0625 1.445312l-33.515625-25.695312c-8.039063-6.164063 1.464844-18.777344 9.609375-12.53125l19.28125 14.78125c4.410156 3.382812 10.726562 2.554687 14.117188-1.847657l49.007812-63.613281c2.65625-3.449219 7.625-4.09375 11.078125-1.4375 3.449219 2.660156 4.09375 7.628906 1.4375 11.078125zm0 0"/></svg>